<?xml version="1.0" standalone="no"?>
<!DOCTYPE svg PUBLIC "-//W3C//DTD SVG 20010904//EN"
 "http://www.w3.org/TR/2001/REC-SVG-20010904/DTD/svg10.dtd">
<svg version="1.0" xmlns="http://www.w3.org/2000/svg"
 width="512.000000pt" height="512.000000pt" viewBox="0 0 512.000000 512.000000"
 preserveAspectRatio="xMidYMid meet">
<metadata>
Created by potrace 1.14, written by Peter Selinger 2001-2017
</metadata>
<g transform="translate(0.000000,512.000000) scale(0.100000,-0.100000)"
fill="#000000" stroke="none">
<path d="M3391 4424 c-36 -7 -68 -17 -72 -21 -9 -10 -56 -330 -74 -513 -8 -80
-15 -201 -15 -270 0 -124 0 -126 30 -161 16 -20 43 -42 59 -49 27 -11 34 -9
83 23 29 20 75 59 103 86 27 28 53 51 57 51 4 0 9 -44 10 -97 l3 -98 49 65
c77 101 203 245 383 438 172 184 247 274 241 291 -1 5 -37 -11 -78 -36 -191
-116 -393 -203 -439 -188 -34 10 -39 58 -23 197 18 154 13 187 -36 236 -61 61
-147 76 -281 46z"/>
<path d="M4751 4331 l-153 -47 -509 -564 c-485 -539 -508 -567 -509 -604 0
-38 0 -38 33 -31 88 20 115 24 147 25 32 1 41 10 120 112 222 290 523 629 899
1011 80 81 141 147 136 146 -6 0 -79 -22 -164 -48z"/>
<path d="M2930 4168 c-239 -149 -298 -192 -305 -221 -2 -12 -18 -139 -35 -282
-16 -143 -33 -277 -36 -297 -5 -31 -3 -38 10 -38 38 0 93 71 170 219 42 83 80
152 84 155 4 2 33 -58 66 -134 32 -77 65 -141 72 -144 21 -8 73 14 78 32 11
34 99 808 94 823 -2 5 -91 -46 -198 -113z"/>
<path d="M1720 4244 c-171 -21 -366 -81 -648 -201 -145 -62 -149 -71 -37 -72
33 -1 107 -8 165 -16 345 -49 593 -186 711 -391 53 -93 59 -133 59 -406 0
-242 0 -248 22 -268 44 -41 50 -22 75 207 l17 163 21 -20 c12 -11 43 -58 69
-106 40 -72 50 -83 63 -73 48 41 109 243 137 459 22 164 34 320 24 320 -4 0
-49 -27 -100 -60 -51 -34 -117 -68 -147 -76 -49 -15 -57 -15 -87 0 -41 19 -49
45 -40 142 3 41 9 108 12 149 15 168 -46 237 -221 249 -33 2 -76 2 -95 0z"/>
<path d="M4520 3694 c-223 -240 -418 -452 -435 -472 l-30 -36 55 31 c164 92
511 221 657 244 79 13 82 14 87 44 12 68 77 600 74 611 -2 7 -185 -183 -408
-422z"/>
<path d="M573 3733 l-51 -4 -12 -87 c-6 -48 -14 -94 -16 -104 -4 -15 15 -16
233 -11 436 10 657 -29 941 -168 124 -60 186 -108 254 -199 l27 -35 1 62 c1
147 -127 304 -324 397 -246 116 -667 176 -1053 149z"/>
<path d="M590 3419 c-52 -5 -104 -11 -115 -14 -19 -4 -23 -27 -58 -306 -20
-166 -36 -303 -35 -304 2 -1 46 22 98 52 219 125 474 244 676 314 112 39 258
67 392 75 l112 7 -36 25 c-99 67 -274 122 -462 147 -123 16 -413 18 -572 4z"/>
<path d="M4705 3224 c-204 -49 -477 -170 -942 -417 l-172 -92 -11 -50 c-33
-163 -49 -336 -32 -363 12 -19 48 -3 397 170 357 176 510 243 685 301 69 22
130 41 136 43 9 2 23 85 61 382 l6 42 -34 -1 c-19 0 -61 -7 -94 -15z"/>
<path d="M1525 3036 c-266 -52 -546 -160 -958 -368 -138 -70 -201 -107 -206
-122 -5 -11 -14 -70 -20 -131 -7 -60 -21 -164 -31 -230 -11 -65 -18 -121 -16
-123 7 -6 110 50 251 138 346 214 692 365 965 420 151 31 214 18 304 -61 l44
-39 6 27 c3 16 15 102 27 193 l22 165 -20 46 c-16 37 -30 51 -68 69 -59 29
-197 36 -300 16z"/>
<path d="M3185 2744 c-154 -30 -434 -195 -830 -490 -269 -201 -383 -274 -428
-274 -52 0 -108 64 -122 141 -4 21 1 85 10 148 26 169 14 210 -75 257 -80 42
-268 14 -503 -74 -270 -103 -765 -362 -936 -491 -22 -16 -26 -38 -58 -285 -19
-147 -33 -269 -30 -272 2 -3 40 21 83 52 227 163 658 431 819 509 186 90 370
167 437 182 63 14 72 14 113 -1 55 -22 110 -82 126 -138 11 -41 10 -83 -7
-274 -12 -133 23 -179 131 -172 103 6 227 79 680 400 388 274 574 389 653 404
99 19 187 -53 206 -171 4 -22 0 -89 -9 -149 -26 -190 -21 -208 67 -221 45 -7
55 -3 260 98 348 172 761 348 885 377 60 14 51 -13 83 249 12 90 19 165 17
167 -6 7 -157 -35 -247 -68 -132 -48 -214 -85 -505 -226 -365 -177 -460 -207
-505 -162 -27 27 -34 60 -26 128 29 269 18 324 -69 354 -59 20 -125 21 -220 2z"/>
<path d="M3245 2259 c-114 -28 -313 -148 -677 -412 -301 -218 -400 -284 -493
-329 -169 -80 -272 -69 -328 35 -20 39 -22 52 -18 172 9 269 9 271 -19 300
-24 26 -28 27 -105 22 -131 -8 -351 -102 -684 -291 -294 -167 -731 -450 -731
-474 0 -8 -14 -130 -31 -270 -17 -139 -28 -256 -26 -258 2 -3 24 12 48 32 147
123 459 341 674 471 682 410 710 424 793 373 54 -33 62 -67 62 -258 0 -168 0
-168 29 -213 59 -93 119 -107 287 -64 180 46 252 88 699 409 294 211 461 318
528 338 49 15 81 0 111 -52 20 -33 21 -48 18 -227 l-3 -192 26 -17 c20 -13 42
-16 113 -12 112 6 189 36 548 215 190 95 317 151 425 188 l154 53 23 192 c13
106 21 194 18 197 -9 10 -128 -17 -236 -53 -58 -20 -251 -107 -430 -194 -179
-87 -353 -168 -387 -179 -106 -36 -188 -23 -223 33 -25 39 -29 91 -19 217 11
124 2 230 -20 243 -18 12 -89 14 -126 5z"/>
</g>
</svg>
